# Blender v2.79 (sub 0) OBJ File: 'attemptroom1.blend1'
# www.blender.org
mtllib housev2.mtl
o Plane.002_Plane.014
v -0.500000 0.250000 10.290002
v -0.500000 -0.250000 10.290002
v -0.500000 0.250000 -10.290002
v -0.500000 -0.250000 -10.290002
v -0.500000 0.250000 10.290002
v -0.500000 -0.250000 10.290002
v -0.500000 0.250000 -10.290002
v -0.500000 -0.250000 -10.290002
v 31.186884 0.249999 10.290002
v 31.186884 -0.250001 10.290002
v 31.186884 0.249999 -10.290002
v 31.186884 -0.250001 -10.290002
vn -1.0000 0.0000 0.0000
vn 0.0000 0.0000 1.0000
vn 1.0000 0.0000 0.0000
vn -0.0000 -1.0000 0.0000
vn 0.0000 1.0000 0.0000
vn 0.0000 0.0000 -1.0000
usemtl Material.021
s off
f 1//1 3//1 4//1 2//1
f 5//2 6//2 10//2 9//2
f 4//2 3//2 7//2 8//2
f 1//2 2//2 6//2 5//2
f 2//2 4//2 8//2 6//2
f 3//2 1//2 5//2 7//2
f 9//3 10//3 12//3 11//3
f 6//4 8//4 12//4 10//4
f 7//5 5//5 9//5 11//5
f 8//6 7//6 11//6 12//6
o Cube.013
v 0.695625 -0.100000 -5.218939
v 0.695625 0.100000 -5.218939
v 0.695625 -0.100000 -7.298939
v 0.695625 0.100000 -7.298939
v 2.695625 -0.100000 -5.218939
v 2.695625 0.100000 -5.218939
v 2.695625 -0.100000 -7.298939
v 2.695625 0.100000 -7.298939
vn -1.0000 0.0000 0.0000
vn 0.0000 0.0000 -1.0000
vn 1.0000 0.0000 0.0000
vn 0.0000 0.0000 1.0000
vn 0.0000 -1.0000 0.0000
vn 0.0000 1.0000 0.0000
usemtl None
s off
f 13//7 14//7 16//7 15//7
f 15//8 16//8 20//8 19//8
f 19//9 20//9 18//9 17//9
f 17//10 18//10 14//10 13//10
f 15//11 19//11 17//11 13//11
f 20//12 16//12 14//12 18//12
o Cube.012
v -0.360000 0.018513 -7.400000
v -0.360000 6.518513 -7.400000
v -0.360000 0.018513 -8.000000
v -0.360000 6.518513 -8.000000
v 2.360000 0.018513 -7.400000
v 2.360000 6.518513 -7.400000
v 2.360000 0.018513 -8.000000
v 2.360000 6.518513 -8.000000
vn -1.0000 0.0000 0.0000
vn 0.0000 0.0000 -1.0000
vn 1.0000 0.0000 0.0000
vn 0.0000 0.0000 1.0000
vn 0.0000 -1.0000 0.0000
vn 0.0000 1.0000 0.0000
usemtl Material.001
s off
f 21//13 22//13 24//13 23//13
f 23//14 24//14 28//14 27//14
f 27//15 28//15 26//15 25//15
f 25//16 26//16 22//16 21//16
f 23//17 27//17 25//17 21//17
f 28//18 24//18 22//18 26//18
o Cube.011
v 1.950000 0.039644 -10.110000
v 1.950000 6.539644 -10.110000
v 2.550000 0.039644 -10.110000
v 2.550000 6.539644 -10.110000
v 1.950000 0.039644 -7.390000
v 1.950000 6.539644 -7.390000
v 2.550000 0.039644 -7.390000
v 2.550000 6.539644 -7.390000
vn 0.0000 0.0000 -1.0000
vn 1.0000 0.0000 0.0000
vn 0.0000 0.0000 1.0000
vn -1.0000 0.0000 -0.0000
vn 0.0000 -1.0000 -0.0000
vn 0.0000 1.0000 0.0000
usemtl Material.001
s off
f 29//19 30//19 32//19 31//19
f 31//20 32//20 36//20 35//20
f 35//21 36//21 34//21 33//21
f 33//22 34//22 30//22 29//22
f 31//23 35//23 33//23 29//23
f 36//24 32//24 30//24 34//24
o Cube.010
v 9.400000 0.040002 -10.110000
v 9.400000 6.540002 -10.110000
v 10.000000 0.040002 -10.110000
v 10.000000 6.540002 -10.110000
v 9.400000 0.040002 -7.390000
v 9.400000 6.540002 -7.390000
v 10.000000 0.040002 -7.390000
v 10.000000 6.540002 -7.390000
vn 0.0000 0.0000 -1.0000
vn 1.0000 0.0000 0.0000
vn 0.0000 0.0000 1.0000
vn -1.0000 0.0000 0.0000
vn 0.0000 -1.0000 0.0000
vn 0.0000 1.0000 0.0000
usemtl Material.001
s off
f 37//25 38//25 40//25 39//25
f 39//26 40//26 44//26 43//26
f 43//27 44//27 42//27 41//27
f 41//28 42//28 38//28 37//28
f 39//29 43//29 41//29 37//29
f 44//30 40//30 38//30 42//30
o Cube.009
v 2.100000 0.039815 -9.511025
v 2.100000 6.539815 -9.511025
v 2.100000 0.039815 -10.111026
v 2.100000 6.539815 -10.111026
v 9.900000 0.039815 -9.511025
v 9.900000 6.539815 -9.511025
v 9.900000 0.039815 -10.111026
v 9.900000 6.539815 -10.111026
vn -1.0000 0.0000 0.0000
vn 0.0000 0.0000 -1.0000
vn 1.0000 0.0000 0.0000
vn 0.0000 0.0000 1.0000
vn 0.0000 -1.0000 0.0000
vn 0.0000 1.0000 0.0000
usemtl Material.001
s off
f 45//31 46//31 48//31 47//31
f 47//32 48//32 52//32 51//32
f 51//33 52//33 50//33 49//33
f 49//34 50//34 46//34 45//34
f 47//35 51//35 49//35 45//35
f 52//36 48//36 46//36 50//36
o Cube.008
v 9.816000 0.038334 -7.400000
v 9.816000 6.538334 -7.400000
v 9.816000 0.038334 -8.000000
v 9.816000 6.538334 -8.000000
v 12.535999 0.038334 -7.400000
v 12.535999 6.538334 -7.400000
v 12.535999 0.038334 -8.000000
v 12.535999 6.538334 -8.000000
vn -1.0000 0.0000 0.0000
vn 0.0000 0.0000 -1.0000
vn 1.0000 0.0000 0.0000
vn 0.0000 0.0000 1.0000
vn 0.0000 -1.0000 0.0000
vn 0.0000 1.0000 0.0000
usemtl Material.001
s off
f 53//37 54//37 56//37 55//37
f 55//38 56//38 60//38 59//38
f 59//39 60//39 58//39 57//39
f 57//40 58//40 54//40 53//40
f 55//41 59//41 57//41 53//41
f 60//42 56//42 54//42 58//42
o Cube.007
v 11.930585 0.049247 -2.000000
v 11.930585 6.549247 -2.000000
v 11.930585 0.049247 -7.500000
v 11.930585 6.549247 -7.500000
v 12.530585 0.049247 -2.000000
v 12.530585 6.549247 -2.000000
v 12.530585 0.049247 -7.500000
v 12.530585 6.549247 -7.500000
vn -1.0000 0.0000 0.0000
vn 0.0000 0.0000 -1.0000
vn 1.0000 0.0000 0.0000
vn 0.0000 0.0000 1.0000
vn 0.0000 -1.0000 0.0000
vn 0.0000 1.0000 0.0000
usemtl Material.022
s off
f 61//43 62//43 64//43 63//43
f 63//44 64//44 68//44 67//44
f 67//45 68//45 66//45 65//45
f 65//46 66//46 62//46 61//46
f 63//47 67//47 65//47 61//47
f 68//48 64//48 62//48 66//48
o Cube.006
v 9.471550 0.007215 7.380383
v 9.471550 6.507215 7.380383
v 10.071550 0.007215 7.380383
v 10.071550 6.507215 7.380383
v 9.471550 0.007215 10.100383
v 9.471550 6.507215 10.100383
v 10.071550 0.007215 10.100383
v 10.071550 6.507215 10.100383
vn 0.0000 0.0000 -1.0000
vn 1.0000 0.0000 0.0000
vn 0.0000 0.0000 1.0000
vn -1.0000 0.0000 0.0000
vn 0.0000 -1.0000 0.0000
vn 0.0000 1.0000 0.0000
usemtl Material.001
s off
f 69//49 70//49 72//49 71//49
f 71//50 72//50 76//50 75//50
f 75//51 76//51 74//51 73//51
f 73//52 74//52 70//52 69//52
f 71//53 75//53 73//53 69//53
f 76//54 72//54 70//54 74//54
o Cube.005
v 9.816210 -0.009205 8.000000
v 9.816210 6.490795 8.000000
v 9.816210 -0.009205 7.400000
v 9.816210 6.490795 7.400000
v 12.536209 -0.009205 8.000000
v 12.536209 6.490795 8.000000
v 12.536209 -0.009205 7.400000
v 12.536209 6.490795 7.400000
vn -1.0000 0.0000 0.0000
vn 0.0000 0.0000 -1.0000
vn 1.0000 0.0000 0.0000
vn 0.0000 0.0000 1.0000
vn 0.0000 -1.0000 0.0000
vn 0.0000 1.0000 0.0000
usemtl Material.001
s off
f 77//55 78//55 80//55 79//55
f 79//56 80//56 84//56 83//56
f 83//57 84//57 82//57 81//57
f 81//58 82//58 78//58 77//58
f 79//59 83//59 81//59 77//59
f 84//60 80//60 78//60 82//60
o Cube.004
v 2.163193 0.007323 10.100000
v 2.163193 6.507323 10.100000
v 2.163193 0.007323 9.500000
v 2.163193 6.507323 9.500000
v 9.963193 0.007323 10.100000
v 9.963193 6.507323 10.100000
v 9.963193 0.007323 9.500000
v 9.963193 6.507323 9.500000
vn -1.0000 0.0000 0.0000
vn 0.0000 0.0000 -1.0000
vn 1.0000 0.0000 0.0000
vn 0.0000 0.0000 1.0000
vn 0.0000 -1.0000 0.0000
vn 0.0000 1.0000 0.0000
usemtl Material
s off
f 85//61 86//61 88//61 87//61
f 87//62 88//62 92//62 91//62
f 91//63 92//63 90//63 89//63
f 89//64 90//64 86//64 85//64
f 87//65 91//65 89//65 85//65
f 92//66 88//66 86//66 90//66
o Cube.003
v 11.927932 -0.008871 7.531113
v 11.927932 6.491129 7.531113
v 11.927932 -0.008871 2.031113
v 11.927932 6.491129 2.031113
v 12.527932 -0.008871 7.531113
v 12.527932 6.491129 7.531113
v 12.527932 -0.008871 2.031113
v 12.527932 6.491129 2.031113
vn -1.0000 0.0000 0.0000
vn 0.0000 0.0000 -1.0000
vn 1.0000 0.0000 0.0000
vn 0.0000 0.0000 1.0000
vn 0.0000 -1.0000 0.0000
vn 0.0000 1.0000 0.0000
usemtl Material.001
s off
f 93//67 94//67 96//67 95//67
f 95//68 96//68 100//68 99//68
f 99//69 100//69 98//69 97//69
f 97//70 98//70 94//70 93//70
f 95//71 99//71 97//71 93//71
f 100//72 96//72 94//72 98//72
o Cube.002
v 1.955256 0.012642 7.393766
v 1.955256 6.512642 7.393766
v 2.555256 0.012642 7.393766
v 2.555256 6.512642 7.393766
v 1.955256 0.012642 10.113766
v 1.955256 6.512642 10.113766
v 2.555256 0.012642 10.113766
v 2.555256 6.512642 10.113766
vn 0.0000 0.0000 -1.0000
vn 1.0000 0.0000 0.0000
vn 0.0000 0.0000 1.0000
vn -1.0000 0.0000 -0.0000
vn 0.0000 -1.0000 -0.0000
vn 0.0000 1.0000 -0.0000
usemtl Material.001
s off
f 101//73 102//73 104//73 103//73
f 103//74 104//74 108//74 107//74
f 107//75 108//75 106//75 105//75
f 105//76 106//76 102//76 101//76
f 103//77 107//77 105//77 101//77
f 108//78 104//78 102//78 106//78
o Cube.001
v -0.360000 0.000015 7.997563
v -0.360000 6.500015 7.997563
v -0.360000 0.000015 7.397563
v -0.360000 6.500015 7.397563
v 2.360000 0.000015 7.997563
v 2.360000 6.500015 7.997563
v 2.360000 0.000015 7.397563
v 2.360000 6.500015 7.397563
vn -1.0000 0.0000 0.0000
vn 0.0000 0.0000 -1.0000
vn 1.0000 0.0000 0.0000
vn 0.0000 0.0000 1.0000
vn 0.0000 -1.0000 0.0000
vn 0.0000 1.0000 0.0000
usemtl Material.001
s off
f 109//79 110//79 112//79 111//79
f 111//80 112//80 116//80 115//80
f 115//81 116//81 114//81 113//81
f 113//82 114//82 110//82 109//82
f 111//83 115//83 113//83 109//83
f 116//84 112//84 110//84 114//84
o Cube
v -0.380000 0.004509 8.000000
v -0.380000 6.504509 8.000000
v -0.380000 0.004509 -8.000000
v -0.380000 6.504509 -8.000000
v 0.380000 0.004509 8.000000
v 0.380000 6.504509 8.000000
v 0.380000 0.004509 -8.000000
v 0.380000 6.504509 -8.000000
vn -1.0000 0.0000 0.0000
vn 0.0000 0.0000 -1.0000
vn 1.0000 0.0000 0.0000
vn 0.0000 0.0000 1.0000
vn 0.0000 -1.0000 0.0000
vn 0.0000 1.0000 0.0000
usemtl Material.001
s off
f 117//85 118//85 120//85 119//85
f 119//86 120//86 124//86 123//86
f 123//87 124//87 122//87 121//87
f 121//88 122//88 118//88 117//88
f 119//89 123//89 121//89 117//89
f 124//90 120//90 118//90 122//90
o floor_Plane.013
v -0.500000 7.000000 11.000000
v 13.500000 7.000000 11.000000
v -0.500000 7.000000 -11.000000
v 13.500000 7.000000 -11.000000
v -0.500000 6.500000 11.000000
v 13.500000 6.500000 11.000000
v -0.500000 6.500000 -11.000000
v 13.500000 6.500000 -11.000000
v 6.500000 11.403183 0.000000
vt 0.862033 0.249778
vt 0.862033 0.000222
vt 0.612476 0.000222
vt 0.612476 0.249778
vt 0.612033 0.250222
vt 0.612033 0.499778
vt 0.000222 0.375000
vt 0.612476 0.312611
vt 0.862033 0.312611
vt 0.862033 0.375000
vt 0.612476 0.375000
vt 0.612476 0.438276
vt 0.862033 0.438276
vt 0.862033 0.500665
vt 0.612476 0.500665
vt 0.612476 0.312168
vt 0.862033 0.312168
vt 0.862033 0.375443
vt 0.612476 0.375443
vt 0.612476 0.437833
vt 0.862033 0.437833
vt 0.612033 0.999778
vt 0.612033 0.750222
vt 0.000222 0.875000
vt 0.612033 0.249778
vt 0.612033 0.000222
vt 0.000222 0.125000
vt 0.612033 0.500222
vt 0.612033 0.749778
vt 0.000222 0.625000
vn 0.0000 -1.0000 0.0000
vn 0.5737 0.8191 0.0000
vn 1.0000 0.0000 0.0000
vn 0.0000 0.0000 1.0000
vn 0.0000 0.0000 -1.0000
vn -1.0000 0.0000 0.0000
vn -0.5737 0.8191 0.0000
vn 0.0000 0.9134 -0.4071
vn 0.0000 0.9134 0.4071
usemtl Material.020
s off
f 125/1/91 127/2/91 128/3/91 126/4/91
f 130/5/92 132/6/92 133/7/92
f 127/8/93 125/9/93 129/10/93 131/11/93
f 128/12/94 127/13/94 131/14/94 132/15/94
f 125/1/95 126/4/95 130/16/95 129/17/95
f 126/18/96 128/19/96 132/20/96 130/21/96
f 131/22/97 129/23/97 133/24/97
f 132/25/98 131/26/98 133/27/98
f 129/28/99 130/29/99 133/30/99
