{
    "asset" : {
        "generator" : "Khronos glTF Blender I/O v0.9.36",
        "version" : "2.0"
    },
    "scene" : 0,
    "scenes" : [
        {
            "name" : "Scene",
            "nodes" : [
                0,
                4,
                5
            ]
        }
    ],
    "nodes" : [
        {
            "name" : "Sun",
            "rotation" : [
                0.8903648853302002,
                0.12716984748840332,
                -0.22856511175632477,
                0.3726072609424591
            ],
            "translation" : [
                9.87811279296875,
                6.315748691558838,
                -25.34457015991211
            ]
        },
        {
            "name" : "Cube006",
            "scale" : [
                0.75,
                0.25,
                3.5
            ],
            "translation" : [
                -3.5,
                -13.25,
                2.5
            ]
        },
        {
            "children" : [
                1
            ],
            "name" : "housev4v5gltfglb",
            "translation" : [
                0,
                0,
                -0.9980340003967285
            ]
        },
        {
            "children" : [
                2
            ],
            "name" : "scene_(1)gltf"
        },
        {
            "children" : [
                3
            ],
            "name" : "scene.gltf",
            "rotation" : [
                0.7071068286895752,
                0,
                0,
                0.7071067094802856
            ]
        },
        {
            "mesh" : 0,
            "name" : "Cube",
            "scale" : [
                25,
                0.75,
                25
            ],
            "translation" : [
                5.338112831115723,
                -5,
                -12.78456974029541
            ]
        }
    ],
    "meshes" : [
        {
            "name" : "Cube",
            "primitives" : [
                {
                    "attributes" : {
                        "POSITION" : 0,
                        "NORMAL" : 1,
                        "TEXCOORD_0" : 2,
                        "TEXCOORD_1" : 3,
                        "TEXCOORD_2" : 4,
                        "TEXCOORD_3" : 5
                    },
                    "indices" : 6
                }
            ]
        }
    ],
    "accessors" : [
        {
            "bufferView" : 0,
            "componentType" : 5126,
            "count" : 706,
            "max" : [
                1,
                16.813335418701172,
                1
            ],
            "min" : [
                -1,
                -1,
                -1
            ],
            "type" : "VEC3"
        },
        {
            "bufferView" : 1,
            "componentType" : 5126,
            "count" : 706,
            "type" : "VEC3"
        },
        {
            "bufferView" : 2,
            "componentType" : 5126,
            "count" : 706,
            "type" : "VEC2"
        },
        {
            "bufferView" : 3,
            "componentType" : 5126,
            "count" : 706,
            "type" : "VEC2"
        },
        {
            "bufferView" : 4,
            "componentType" : 5126,
            "count" : 706,
            "type" : "VEC2"
        },
        {
            "bufferView" : 5,
            "componentType" : 5126,
            "count" : 706,
            "type" : "VEC2"
        },
        {
            "bufferView" : 6,
            "componentType" : 5123,
            "count" : 1008,
            "type" : "SCALAR"
        }
    ],
    "bufferViews" : [
        {
            "buffer" : 0,
            "byteLength" : 8472,
            "byteOffset" : 0
        },
        {
            "buffer" : 0,
            "byteLength" : 8472,
            "byteOffset" : 8472
        },
        {
            "buffer" : 0,
            "byteLength" : 5648,
            "byteOffset" : 16944
        },
        {
            "buffer" : 0,
            "byteLength" : 5648,
            "byteOffset" : 22592
        },
        {
            "buffer" : 0,
            "byteLength" : 5648,
            "byteOffset" : 28240
        },
        {
            "buffer" : 0,
            "byteLength" : 5648,
            "byteOffset" : 33888
        },
        {
            "buffer" : 0,
            "byteLength" : 2016,
            "byteOffset" : 39536
        }
    ],
    "buffers" : [
        {
            "byteLength" : 41552,
            "uri" : "data:application/octet-stream;base64,"
        }
    ]
}
